<svg xmlns="http://www.w3.org/2000/svg" viewBox="0 0 53.673 10.041" height="37.95" width="202.859" style="fill:#2f9c99"><path d="M5.726 2.805Q6 3.366 6 4.054q0 .688-.275 1.25-.275.55-.7.878-.423.328-.9.508-.476.17-.92.17h-1.32v1.196q0 .243-.02.37-.01.116-.095.275-.085.16-.286.222-.2.063-.54.063-.275 0-.455-.053-.18-.053-.275-.127-.095-.074-.148-.212Q.01 8.446 0 8.35q0-.106 0-.307V2.17q0-.243.01-.36.02-.127.106-.286.085-.16.286-.222.2-.063.54-.063h2.265q.444 0 .9.18.476.17.9.497.434.328.7.9zM4.14 4.043q0-.455-.307-.688-.307-.243-.635-.243H1.874v1.873h1.333q.317 0 .624-.233.307-.233.307-.7zm8.4-2.793q.265 0 .444.053.2.053.275.127.095.074.138.222.053.138.053.243.01.095.01.296v5.874q0 .254-.02.37-.01.116-.095.275-.085.16-.286.222-.2.063-.54.063-.413 0-.57-.063-.16-.063-.265-.2-2.38-3.175-3.133-4.15v3.482q0 .254-.02.37-.01.116-.095.275-.085.16-.286.222-.2.063-.54.063-.328 0-.53-.063-.2-.063-.275-.222-.085-.16-.106-.286-.01-.127-.01-.37V2.15q0-.243.02-.36.02-.116.095-.265.085-.148.286-.212.2-.063.54-.063.296 0 .476.063.2.053.265.127.074.063.2.212l.053.063q2.233 3.037 2.984 4V2.15q0-.243.02-.36.02-.116.095-.265.085-.148.286-.212.2-.063.54-.063zm5.818 3.068h1.863q.286.01.455.085.18.063.243.212.074.138.085.254.02.106.02.34v2.328q0 .34-.296.646-.296.307-.656.497-.847.423-2 .423-1.577 0-2.74-1.185-1.164-1.196-1.164-2.9 0-1.65 1.185-2.773Q16.537 1.1 18.146 1.1q1.1 0 2.064.614.2.138.296.212.106.074.2.212.095.127.095.275 0 .243-.243.582-.413.56-.75.56-.2 0-.56-.243-.53-.34-1.143-.34-.804 0-1.43.57-.624.56-.624 1.482 0 .9.635 1.556.635.635 1.44.635.582 0 1.048-.2v-1.14h-.836q-.2 0-.296-.01-.085-.02-.2-.085-.106-.074-.148-.233-.042-.17-.042-.455 0-.275.042-.444.053-.17.18-.233.127-.063.212-.074.095-.02.296-.02zm16.145 2.805h3.26q.243 0 .36.02.127.01.286.095.16.085.222.286.063.2.063.54 0 .275-.053.455-.053.18-.127.275-.074.095-.222.148-.138.042-.243.053-.095 0-.296 0h-4.2q-.275 0-.455-.053-.18-.053-.275-.127-.095-.074-.148-.212-.042-.148-.053-.243 0-.106 0-.307V2.17q0-.54.2-.73.2-.2.762-.2h4.17q.243 0 .36.02.127.01.286.095.16.085.222.286.063.2.063.54 0 .275-.053.455-.053.18-.127.275-.074.095-.222.148-.138.042-.243.053-.095 0-.296 0h-3.25v1.07h2.095q.243 0 .36.02.127.01.286.095.16.085.222.286.063.2.063.54 0 .275-.053.455-.053.18-.127.275-.074.095-.222.148-.148.042-.254.053-.095 0-.296 0h-2.074zm8.927-2.805h1.863q.286.01.455.085.18.063.243.212.074.138.085.254.02.106.02.34v2.328q0 .34-.296.646-.296.307-.656.497-.847.423-2 .423-1.577 0-2.74-1.185-1.164-1.196-1.164-2.9 0-1.65 1.185-2.773Q41.6 1.1 43.22 1.1q1.1 0 2.064.614.2.138.296.212.106.074.2.212.095.127.095.275 0 .243-.243.582-.413.56-.75.56-.2 0-.56-.243-.53-.34-1.143-.34-.804 0-1.43.57-.624.56-.624 1.482 0 .9.635 1.556.635.635 1.44.635.582 0 1.048-.2v-1.14H43.4q-.2 0-.296-.01-.085-.02-.2-.085-.106-.074-.148-.233-.042-.17-.042-.455 0-.275.042-.444.053-.17.18-.233.127-.063.212-.074.095-.02.296-.02zm7.567 0h1.863q.286.01.455.085.18.063.243.212.074.138.085.254.02.106.02.34v2.328q0 .34-.296.646-.296.307-.656.497-.847.423-2 .423-1.577 0-2.74-1.185-1.164-1.196-1.164-2.9 0-1.65 1.185-2.773Q49.176 1.1 50.785 1.1q1.1 0 2.064.614.2.138.296.212.106.074.2.212.095.127.095.275 0 .243-.243.582-.413.56-.75.56-.2 0-.56-.243-.53-.34-1.143-.34-.804 0-1.43.57-.624.56-.624 1.482 0 .9.635 1.556.635.635 1.44.635.582 0 1.048-.2v-1.14h-.836q-.2 0-.296-.01-.085-.02-.2-.085-.106-.074-.148-.233-.042-.17-.042-.455 0-.275.042-.444.053-.17.18-.233.127-.063.212-.074.095-.02.296-.02zm-25.6 1.55l1.264-.342 1.264.342 1.264-.342.15.04a2.48 2.48 0 0 0 .22-1.026c0-.574-.196-1.122-.56-1.58l-1.157.313-1.182-.32-1.182.32-1.145-.3c-.362.46-.556 1.005-.556 1.58a2.46 2.46 0 0 0 .22 1.02l.136-.037zm2.063-2.13h.662v.6h-.662zm-.797.656l.598.342-.6.4-.604-.413zM25.2 3.74h.662v.6H25.2zm2.724 2.762L26.66 6.16l-1.264.342-1.264-.342-1.396.377c.2.918.644 1.75 1.273 2.375.733.727 1.674 1.128 2.65 1.128s1.917-.4 2.65-1.128c.63-.624 1.074-1.458 1.273-2.375l-1.396-.377zM25.48 2.657l1.182-.32 1.182.32 1.182-.32 1.312.355C29.68 1.052 28.253 0 26.66 0s-3.02 1.052-3.676 2.693l1.312-.355z"/></svg>